<mxfile host="Electron" modified="2024-03-05T08:49:09.522Z" agent="Mozilla/5.0 (Windows NT 10.0; Win64; x64) AppleWebKit/537.36 (KHTML, like Gecko) draw.io/21.2.8 Chrome/112.0.5615.165 Electron/24.2.0 Safari/537.36" etag="0MrHIwGS00l3aIZ1l9hC" version="21.2.8" type="device">
  <diagram name="Page-1" id="jLfdYMh98YblfBABreyH">
    <mxGraphModel dx="1820" dy="675" grid="1" gridSize="10" guides="1" tooltips="1" connect="1" arrows="1" fold="1" page="1" pageScale="1" pageWidth="827" pageHeight="1169" math="0" shadow="0">
      <root>
        <mxCell id="0" />
        <mxCell id="1" parent="0" />
        <mxCell id="891scLdjcy_5BsDFkiwG-9" value="" style="rounded=0;whiteSpace=wrap;html=1;" vertex="1" parent="1">
          <mxGeometry x="130" y="70" width="230" height="380" as="geometry" />
        </mxCell>
        <mxCell id="891scLdjcy_5BsDFkiwG-1" value="&lt;font size=&quot;1&quot; style=&quot;&quot; face=&quot;Verdana&quot;&gt;&lt;b style=&quot;font-size: 14px;&quot;&gt;write&lt;/b&gt;&lt;/font&gt;" style="ellipse;whiteSpace=wrap;html=1;fillColor=#d5e8d4;strokeColor=#000000;" vertex="1" parent="1">
          <mxGeometry x="-20" y="160" width="70" height="40" as="geometry" />
        </mxCell>
        <mxCell id="891scLdjcy_5BsDFkiwG-5" style="edgeStyle=orthogonalEdgeStyle;rounded=0;orthogonalLoop=1;jettySize=auto;html=1;exitX=0.5;exitY=1;exitDx=0;exitDy=0;" edge="1" parent="1">
          <mxGeometry relative="1" as="geometry">
            <mxPoint x="245" y="255" as="targetPoint" />
            <mxPoint x="245" y="185" as="sourcePoint" />
          </mxGeometry>
        </mxCell>
        <mxCell id="891scLdjcy_5BsDFkiwG-2" value="&lt;font face=&quot;Verdana&quot; style=&quot;font-size: 14px;&quot;&gt;active&lt;br&gt;memtable&lt;/font&gt;" style="rounded=1;whiteSpace=wrap;html=1;fillColor=#b1ddf0;strokeColor=#0c0d0d;" vertex="1" parent="1">
          <mxGeometry x="180" y="120" width="130" height="60" as="geometry" />
        </mxCell>
        <mxCell id="891scLdjcy_5BsDFkiwG-4" value="" style="rounded=1;whiteSpace=wrap;html=1;fillColor=#b0e3e6;strokeColor=#000000;" vertex="1" parent="1">
          <mxGeometry x="190" y="260" width="130" height="60" as="geometry" />
        </mxCell>
        <mxCell id="891scLdjcy_5BsDFkiwG-3" value="&lt;font face=&quot;Verdana&quot; style=&quot;font-size: 14px;&quot;&gt;immutable&lt;br&gt;memtable&lt;/font&gt;" style="rounded=1;whiteSpace=wrap;html=1;fillColor=#b0e3e6;strokeColor=#1b1d1d;" vertex="1" parent="1">
          <mxGeometry x="180" y="270" width="130" height="60" as="geometry" />
        </mxCell>
        <mxCell id="891scLdjcy_5BsDFkiwG-7" value="&lt;font face=&quot;Verdana&quot; style=&quot;font-size: 14px;&quot;&gt;full&lt;/font&gt;" style="text;html=1;align=center;verticalAlign=middle;resizable=0;points=[];autosize=1;strokeColor=none;fillColor=none;" vertex="1" parent="1">
          <mxGeometry x="244" y="204" width="40" height="30" as="geometry" />
        </mxCell>
        <mxCell id="891scLdjcy_5BsDFkiwG-8" value="&lt;font face=&quot;Verdana&quot; style=&quot;font-size: 14px;&quot;&gt;&lt;font style=&quot;font-size: 14px;&quot;&gt;block&lt;br&gt;&lt;/font&gt;cache&lt;/font&gt;" style="rounded=1;whiteSpace=wrap;html=1;fillColor=#bac8d3;strokeColor=#000000;" vertex="1" parent="1">
          <mxGeometry x="180" y="369" width="130" height="60" as="geometry" />
        </mxCell>
        <mxCell id="891scLdjcy_5BsDFkiwG-10" value="&lt;font size=&quot;1&quot; face=&quot;Verdana&quot; style=&quot;&quot;&gt;&lt;b style=&quot;font-size: 16px;&quot;&gt;Memory&lt;/b&gt;&lt;/font&gt;" style="text;html=1;align=center;verticalAlign=middle;resizable=0;points=[];autosize=1;strokeColor=none;fillColor=none;" vertex="1" parent="1">
          <mxGeometry x="195" y="76" width="100" height="30" as="geometry" />
        </mxCell>
        <mxCell id="891scLdjcy_5BsDFkiwG-11" value="&lt;font size=&quot;1&quot; style=&quot;&quot; face=&quot;Verdana&quot;&gt;&lt;b style=&quot;font-size: 14px;&quot;&gt;read&lt;/b&gt;&lt;/font&gt;" style="ellipse;whiteSpace=wrap;html=1;fillColor=#f8cecc;strokeColor=#000000;" vertex="1" parent="1">
          <mxGeometry x="-20" y="330" width="70" height="40" as="geometry" />
        </mxCell>
        <mxCell id="891scLdjcy_5BsDFkiwG-12" value="" style="curved=1;endArrow=classic;html=1;rounded=0;exitX=1;exitY=0.5;exitDx=0;exitDy=0;entryX=0;entryY=0.5;entryDx=0;entryDy=0;" edge="1" parent="1" source="891scLdjcy_5BsDFkiwG-1" target="891scLdjcy_5BsDFkiwG-2">
          <mxGeometry width="50" height="50" relative="1" as="geometry">
            <mxPoint x="390" y="370" as="sourcePoint" />
            <mxPoint x="440" y="320" as="targetPoint" />
            <Array as="points">
              <mxPoint x="100" y="160" />
            </Array>
          </mxGeometry>
        </mxCell>
        <mxCell id="891scLdjcy_5BsDFkiwG-13" value="" style="curved=1;endArrow=classic;html=1;rounded=0;exitX=1;exitY=0.5;exitDx=0;exitDy=0;entryX=0;entryY=1;entryDx=0;entryDy=0;" edge="1" parent="1" source="891scLdjcy_5BsDFkiwG-11" target="891scLdjcy_5BsDFkiwG-2">
          <mxGeometry width="50" height="50" relative="1" as="geometry">
            <mxPoint x="390" y="370" as="sourcePoint" />
            <mxPoint x="440" y="320" as="targetPoint" />
            <Array as="points">
              <mxPoint x="120" y="350" />
            </Array>
          </mxGeometry>
        </mxCell>
        <mxCell id="891scLdjcy_5BsDFkiwG-14" value="" style="curved=1;endArrow=classic;html=1;rounded=0;exitX=1;exitY=0.5;exitDx=0;exitDy=0;entryX=0;entryY=0.5;entryDx=0;entryDy=0;" edge="1" parent="1" source="891scLdjcy_5BsDFkiwG-11" target="891scLdjcy_5BsDFkiwG-3">
          <mxGeometry width="50" height="50" relative="1" as="geometry">
            <mxPoint x="390" y="370" as="sourcePoint" />
            <mxPoint x="440" y="320" as="targetPoint" />
            <Array as="points">
              <mxPoint x="160" y="330" />
            </Array>
          </mxGeometry>
        </mxCell>
        <mxCell id="891scLdjcy_5BsDFkiwG-15" value="" style="curved=1;endArrow=classic;html=1;rounded=0;exitX=1;exitY=0.5;exitDx=0;exitDy=0;entryX=0;entryY=0.5;entryDx=0;entryDy=0;" edge="1" parent="1" source="891scLdjcy_5BsDFkiwG-11" target="891scLdjcy_5BsDFkiwG-8">
          <mxGeometry width="50" height="50" relative="1" as="geometry">
            <mxPoint x="390" y="370" as="sourcePoint" />
            <mxPoint x="440" y="320" as="targetPoint" />
            <Array as="points">
              <mxPoint x="110" y="340" />
            </Array>
          </mxGeometry>
        </mxCell>
        <mxCell id="891scLdjcy_5BsDFkiwG-16" value="" style="rounded=0;whiteSpace=wrap;html=1;" vertex="1" parent="1">
          <mxGeometry x="440" y="70" width="200" height="380" as="geometry" />
        </mxCell>
        <mxCell id="891scLdjcy_5BsDFkiwG-17" value="&lt;font size=&quot;1&quot; face=&quot;Verdana&quot; style=&quot;&quot;&gt;&lt;b style=&quot;font-size: 16px;&quot;&gt;Disk&lt;/b&gt;&lt;/font&gt;" style="text;html=1;align=center;verticalAlign=middle;resizable=0;points=[];autosize=1;strokeColor=none;fillColor=none;" vertex="1" parent="1">
          <mxGeometry x="509" y="76" width="60" height="30" as="geometry" />
        </mxCell>
        <mxCell id="891scLdjcy_5BsDFkiwG-18" value="" style="endArrow=none;html=1;rounded=0;" edge="1" parent="1">
          <mxGeometry width="50" height="50" relative="1" as="geometry">
            <mxPoint x="440" y="190" as="sourcePoint" />
            <mxPoint x="640" y="190" as="targetPoint" />
          </mxGeometry>
        </mxCell>
        <mxCell id="891scLdjcy_5BsDFkiwG-20" value="&lt;font style=&quot;font-size: 14px;&quot; face=&quot;Verdana&quot;&gt;WAL&lt;/font&gt;" style="rounded=0;whiteSpace=wrap;html=1;fillColor=#f8cecc;strokeColor=#000000;" vertex="1" parent="1">
          <mxGeometry x="460" y="130" width="70" height="40" as="geometry" />
        </mxCell>
        <mxCell id="891scLdjcy_5BsDFkiwG-21" value="&lt;font style=&quot;font-size: 14px;&quot; face=&quot;Verdana&quot;&gt;WAL&lt;/font&gt;" style="rounded=0;whiteSpace=wrap;html=1;fillColor=#f8cecc;strokeColor=#1c1212;" vertex="1" parent="1">
          <mxGeometry x="550" y="130" width="70" height="40" as="geometry" />
        </mxCell>
        <mxCell id="891scLdjcy_5BsDFkiwG-22" value="&lt;font face=&quot;Verdana&quot; style=&quot;font-size: 14px;&quot;&gt;L0&lt;br&gt;sstable&lt;/font&gt;" style="shape=note;whiteSpace=wrap;html=1;backgroundOutline=1;darkOpacity=0.05;size=22;fillColor=#ffe6cc;strokeColor=#000000;" vertex="1" parent="1">
          <mxGeometry x="460" y="205" width="70" height="65" as="geometry" />
        </mxCell>
        <mxCell id="891scLdjcy_5BsDFkiwG-23" value="&lt;font face=&quot;Verdana&quot; style=&quot;font-size: 14px;&quot;&gt;L1&lt;br&gt;sstable&lt;/font&gt;" style="shape=note;whiteSpace=wrap;html=1;backgroundOutline=1;darkOpacity=0.05;size=22;fillColor=#ffe6cc;strokeColor=#000000;" vertex="1" parent="1">
          <mxGeometry x="460" y="285" width="70" height="65" as="geometry" />
        </mxCell>
        <mxCell id="891scLdjcy_5BsDFkiwG-24" value="&lt;font face=&quot;Verdana&quot; style=&quot;font-size: 14px;&quot;&gt;L1&lt;br&gt;sstable&lt;/font&gt;" style="shape=note;whiteSpace=wrap;html=1;backgroundOutline=1;darkOpacity=0.05;size=22;fillColor=#ffe6cc;strokeColor=#000000;" vertex="1" parent="1">
          <mxGeometry x="550" y="285" width="70" height="65" as="geometry" />
        </mxCell>
        <mxCell id="891scLdjcy_5BsDFkiwG-25" value="&lt;font face=&quot;Verdana&quot; style=&quot;font-size: 14px;&quot;&gt;L2&lt;br&gt;sstable&lt;/font&gt;" style="shape=note;whiteSpace=wrap;html=1;backgroundOutline=1;darkOpacity=0.05;size=22;fillColor=#ffe6cc;strokeColor=#000000;" vertex="1" parent="1">
          <mxGeometry x="460" y="365" width="70" height="65" as="geometry" />
        </mxCell>
        <mxCell id="891scLdjcy_5BsDFkiwG-26" value="&lt;font face=&quot;Verdana&quot; style=&quot;font-size: 14px;&quot;&gt;L2&lt;br&gt;sstable&lt;/font&gt;" style="shape=note;whiteSpace=wrap;html=1;backgroundOutline=1;darkOpacity=0.05;size=22;fillColor=#ffe6cc;strokeColor=#201e18;" vertex="1" parent="1">
          <mxGeometry x="550" y="365" width="70" height="65" as="geometry" />
        </mxCell>
        <mxCell id="891scLdjcy_5BsDFkiwG-27" value="" style="curved=1;endArrow=classic;html=1;rounded=0;exitX=0.5;exitY=0;exitDx=0;exitDy=0;entryX=0;entryY=0.5;entryDx=0;entryDy=0;dashed=1;" edge="1" parent="1" source="891scLdjcy_5BsDFkiwG-1" target="891scLdjcy_5BsDFkiwG-20">
          <mxGeometry width="50" height="50" relative="1" as="geometry">
            <mxPoint x="390" y="360" as="sourcePoint" />
            <mxPoint x="440" y="310" as="targetPoint" />
            <Array as="points">
              <mxPoint x="160" y="100" />
              <mxPoint x="390" y="120" />
            </Array>
          </mxGeometry>
        </mxCell>
        <mxCell id="891scLdjcy_5BsDFkiwG-28" value="" style="curved=1;endArrow=classic;html=1;rounded=0;exitX=1;exitY=0.5;exitDx=0;exitDy=0;entryX=0.038;entryY=0.631;entryDx=0;entryDy=0;entryPerimeter=0;" edge="1" parent="1" source="891scLdjcy_5BsDFkiwG-3" target="891scLdjcy_5BsDFkiwG-22">
          <mxGeometry width="50" height="50" relative="1" as="geometry">
            <mxPoint x="390" y="360" as="sourcePoint" />
            <mxPoint x="440" y="310" as="targetPoint" />
            <Array as="points">
              <mxPoint x="430" y="300" />
            </Array>
          </mxGeometry>
        </mxCell>
        <mxCell id="891scLdjcy_5BsDFkiwG-29" value="&lt;font style=&quot;font-size: 14px;&quot;&gt;flush&lt;/font&gt;" style="edgeLabel;html=1;align=center;verticalAlign=middle;resizable=0;points=[];" vertex="1" connectable="0" parent="891scLdjcy_5BsDFkiwG-28">
          <mxGeometry x="-0.0023" y="10" relative="1" as="geometry">
            <mxPoint as="offset" />
          </mxGeometry>
        </mxCell>
        <mxCell id="891scLdjcy_5BsDFkiwG-30" value="" style="curved=1;endArrow=classic;html=1;rounded=0;exitX=1;exitY=0.5;exitDx=0;exitDy=0;entryX=0;entryY=0.5;entryDx=0;entryDy=0;entryPerimeter=0;" edge="1" parent="1" source="891scLdjcy_5BsDFkiwG-8" target="891scLdjcy_5BsDFkiwG-23">
          <mxGeometry width="50" height="50" relative="1" as="geometry">
            <mxPoint x="390" y="350" as="sourcePoint" />
            <mxPoint x="440" y="300" as="targetPoint" />
            <Array as="points">
              <mxPoint x="400" y="380" />
            </Array>
          </mxGeometry>
        </mxCell>
      </root>
    </mxGraphModel>
  </diagram>
</mxfile>
